<svg width="28" height="24" viewBox="0 0 28 24" fill="none" xmlns="http://www.w3.org/2000/svg">
<path d="M14 2C11.875 2 9.88802 2.36198 8.03906 3.08594C6.1901 3.8099 4.72135 4.78646 3.63281 6.01562C2.54427 7.24479 2 8.57292 2 10C2 11.1667 2.3724 12.2786 3.11719 13.3359C3.86198 14.3932 4.91146 15.3073 6.26562 16.0781L7.625 16.8594L7.20312 18.3594C6.95312 19.3073 6.58854 20.2031 6.10938 21.0469C7.69271 20.3906 9.125 19.5 10.4062 18.375L11.0781 17.7812L11.9688 17.875C12.6875 17.9583 13.3646 18 14 18C16.125 18 18.112 17.638 19.9609 16.9141C21.8099 16.1901 23.2786 15.2135 24.3672 13.9844C25.4557 12.7552 26 11.4271 26 10C26 8.57292 25.4557 7.24479 24.3672 6.01562C23.2786 4.78646 21.8099 3.8099 19.9609 3.08594C18.112 2.36198 16.125 2 14 2ZM28 10C28 11.8125 27.375 13.487 26.125 15.0234C24.875 16.5599 23.1771 17.7734 21.0312 18.6641C18.8854 19.5547 16.5417 20 14 20C13.2708 20 12.5156 19.9583 11.7344 19.875C9.67188 21.6979 7.27604 22.9583 4.54688 23.6562C4.03646 23.8021 3.44271 23.9167 2.76562 24H2.6875C2.53125 24 2.39062 23.9453 2.26562 23.8359C2.14062 23.7266 2.05729 23.5833 2.01562 23.4062V23.3906C1.98438 23.349 1.98177 23.2865 2.00781 23.2031C2.03385 23.1198 2.04427 23.0677 2.03906 23.0469C2.03385 23.026 2.05729 22.9766 2.10938 22.8984L2.20312 22.7578L2.3125 22.625L2.4375 22.4844C2.51042 22.401 2.67188 22.2214 2.92188 21.9453C3.17188 21.6693 3.35156 21.4714 3.46094 21.3516C3.57031 21.2318 3.73177 21.026 3.94531 20.7344C4.15885 20.4427 4.32812 20.1771 4.45312 19.9375C4.57812 19.6979 4.71875 19.3906 4.875 19.0156C5.03125 18.6406 5.16667 18.2448 5.28125 17.8281C3.64583 16.901 2.35677 15.7552 1.41406 14.3906C0.471354 13.026 0 11.5625 0 10C0 8.1875 0.625 6.51302 1.875 4.97656C3.125 3.4401 4.82292 2.22656 6.96875 1.33594C9.11458 0.445312 11.4583 0 14 0C16.5417 0 18.8854 0.445312 21.0312 1.33594C23.1771 2.22656 24.875 3.4401 26.125 4.97656C27.375 6.51302 28 8.1875 28 10Z" fill="#2F2F2F"/>
</svg>
